<svg width="94" height="54" viewBox="0 0 94 54" fill="none" xmlns="http://www.w3.org/2000/svg">
<g opacity="0.9">
<path d="M0.00288767 50.4543H1.13663C1.19144 52.0531 2.10595 52.8974 3.53106 52.8974C5.08311 52.8974 5.85048 51.9225 5.85048 50.5268C5.85048 47.5499 0.184635 47.5324 0.184635 43.8011C0.184635 42.0369 1.51744 40.6587 3.49356 40.6587C5.46968 40.6587 6.74767 42.0921 6.8371 44.1144H5.70336C5.63124 42.4983 4.75424 41.7613 3.52818 41.7613C2.13768 41.7613 1.33569 42.5708 1.33569 43.8011C1.33569 46.778 6.99865 46.6678 6.99865 50.5268C6.99865 52.2736 5.81009 54 3.56279 54C1.44243 54 0.0548122 52.584 0 50.4514" fill="white"/>
<path d="M8.86523 49.959V40.8975H9.99898V49.959C9.99898 51.9436 10.9683 52.8257 12.3559 52.8257C13.7435 52.8257 14.7128 51.9436 14.7128 49.959V40.8975H15.8466V49.959C15.8466 52.5675 14.4013 53.9283 12.3559 53.9283C10.3105 53.9283 8.86523 52.5675 8.86523 49.959Z" fill="white"/>
<path d="M25.1848 44.8494C25.1848 47.4956 23.8866 48.8941 21.5297 48.8941H19.5939V53.7629H18.4602V40.8975H21.5297C23.8866 40.8975 25.1848 42.3308 25.1848 44.8494ZM24.051 44.8494C24.051 42.9372 23.2462 41.9826 21.5297 41.9826H19.5939V47.8089H21.5297C23.2462 47.8089 24.051 46.8891 24.051 44.8494Z" fill="white"/>
<path d="M33.0605 52.7154V53.7629H26.9014V40.8975H32.8586V41.9449H28.0351V46.7063H32.547V47.7538H28.0351V52.7154H33.0605Z" fill="white"/>
<path d="M37.7369 48.7461H36.3291V53.7629H35.1953V40.8975H38.1177C40.4746 40.8975 41.7728 42.2757 41.7728 44.6637C41.7728 46.9066 40.714 48.3399 38.96 48.6707L42.1016 53.76H40.7862L37.734 48.7432L37.7369 48.7461ZM36.3319 47.6784H38.1032C39.7649 47.6784 40.6246 46.6309 40.6246 44.7391C40.6246 42.8473 39.7649 41.9652 38.1206 41.9652H36.3291V47.6813L36.3319 47.6784Z" fill="white"/>
<path d="M55.1353 50.252C55.1353 52.5501 53.765 53.7629 51.4975 53.7629H48.2087V40.8975H51.2061C53.3438 40.8975 54.6045 42.1103 54.6045 44.2429C54.6045 45.8417 53.9467 46.8166 52.9428 47.0922C54.2958 47.4056 55.1353 48.5256 55.1353 50.252ZM49.3425 41.9652V46.6338H51.2436C52.7235 46.6338 53.4534 45.8243 53.4534 44.2458C53.4534 42.6674 52.7235 41.9681 51.2061 41.9681H49.3425V41.9652ZM53.9813 50.252C53.9813 48.5807 52.9024 47.6987 51.2955 47.6987H49.3396V52.698H51.4946C53.1563 52.698 53.9784 51.9436 53.9784 50.2549" fill="white"/>
<path d="M59.575 48.7461H58.1672V53.7629H57.0334V40.8975H59.9558C62.3127 40.8975 63.6109 42.2757 63.6109 44.6637C63.6109 46.9066 62.5522 48.3399 60.7982 48.6707L63.9398 53.76H62.6243L59.5721 48.7432L59.575 48.7461ZM58.1672 47.6784H59.9385C61.6002 47.6784 62.4599 46.6309 62.4599 44.7391C62.4599 42.8473 61.6002 41.9652 59.9558 41.9652H58.1643V47.6813L58.1672 47.6784Z" fill="white"/>
<path d="M66.9948 40.8975H65.8611V53.7629H66.9948V40.8975Z" fill="white"/>
<path d="M69.8076 40.8975H72.6752C75.0869 40.8975 76.4774 42.2757 76.4774 44.6666V50.0141C76.4774 52.3847 75.0523 53.7629 72.6752 53.7629H69.8076V40.8975ZM72.6752 52.6777C74.3743 52.6777 75.3436 51.7579 75.3436 49.959V44.7217C75.3436 42.9024 74.3945 41.9826 72.6752 41.9826H70.9385V52.6777H72.6752Z" fill="white"/>
<path d="M78.5977 50.0515V44.5937C78.5977 42.0578 79.9506 40.7144 82.0508 40.7144C84.151 40.7144 85.4867 42.02 85.579 44.3906H84.4828C84.3904 42.6091 83.4788 41.7821 82.0537 41.7821C80.6286 41.7821 79.6968 42.6816 79.6968 44.6111V50.0515C79.6968 51.981 80.7007 52.8805 82.146 52.8805C83.5913 52.8805 84.6126 51.981 84.6126 50.2343V47.9363H82.1287V46.9062H85.6915V50.2343C85.6915 52.5672 84.2289 53.9454 82.146 53.9454C80.0632 53.9454 78.6005 52.5672 78.6005 50.0486" fill="white"/>
<path d="M94 52.7154V53.7629H87.8438V40.8975H93.801V41.9449H88.9746V46.7063H93.4894V47.7538H88.9746V52.7154H94Z" fill="white"/>
<path d="M23.9701 20.3254L23.5085 19.275C23.748 19.1676 23.9932 19.0574 24.2326 18.9384L25.1673 18.4858L47.3143 7.95898L69.8479 18.6657C70.1133 18.7933 70.3816 18.921 70.647 19.0429L70.1797 20.0903C69.9056 19.9656 69.6287 19.835 69.3575 19.7044L69.1469 19.6029L47.3143 9.23277L24.7317 19.9772C24.4807 20.099 24.224 20.218 23.973 20.3312" fill="#4964B7"/>
<path d="M46.703 16.3245H44.2422V18.7995H46.703V16.3245Z" fill="#4964B7"/>
<path d="M46.703 19.5481H44.2422V22.0231H46.703V19.5481Z" fill="#4964B7"/>
<path d="M49.908 16.3245H47.4473V18.7995H49.908V16.3245Z" fill="#4964B7"/>
<path d="M49.908 19.5481H47.4473V22.0231H49.908V19.5481Z" fill="#4964B7"/>
<path d="M55.3285 0H53.6553V32.6279H55.3285V0Z" fill="#4964B7"/>
<path d="M92.9068 25.1419C71.2531 25.1419 53.6382 13.8636 53.6382 0H55.3518C55.3518 12.9119 72.1993 23.4184 92.9068 23.4184V25.1419Z" fill="#4964B7"/>
<path d="M40.486 0H38.8127V32.6279H40.486V0Z" fill="#4964B7"/>
<path d="M1.24634 25.1419V23.4184C21.9538 23.4184 38.8013 12.9119 38.8013 0H40.5149C40.5149 13.8636 22.9 25.1419 1.24634 25.1419Z" fill="#4964B7"/>
<path d="M93.0538 26.5552H1.09912V27.7042H93.0538V26.5552Z" fill="#4964B7"/>
</g>
</svg>
