<svg width="18" height="18" viewBox="0 0 18 18" fill="none" xmlns="http://www.w3.org/2000/svg">
<path d="M12.3594 12.0469C12.3594 12.0469 12.4896 11.9167 12.75 11.6562C13.0104 11.4089 13.3131 11.1094 13.6582 10.7578C14.0033 10.4062 14.3581 10.0547 14.7227 9.70312C15.0742 9.33854 15.3542 9.05208 15.5625 8.84375C16.2005 8.21875 16.6237 7.47006 16.832 6.59766C17.0534 5.72526 17.1641 4.88868 17.1641 4.08789C17.1641 3.28711 17.112 2.60677 17.0078 2.04688C16.8906 1.47396 16.832 1.1875 16.832 1.1875C16.832 1.1875 16.5521 1.13542 15.9922 1.03125C15.4323 0.927083 14.7552 0.875 13.9609 0.875C13.1667 0.875 12.3333 0.985676 11.4609 1.20703C10.5885 1.41537 9.83985 1.83854 9.21484 2.47656C8.23828 3.42709 7.45703 4.20182 6.87109 4.80078C6.28515 5.39974 5.99219 5.69922 5.99219 5.69922C5.99219 5.69922 5.81641 5.67318 5.46484 5.62109C5.11328 5.56901 4.67709 5.5625 4.15625 5.60156C3.63541 5.64062 3.08203 5.7513 2.49609 5.93359C1.89713 6.12891 1.35677 6.46745 0.875 6.94922L11.0898 17.1836C11.5716 16.6888 11.9102 16.1484 12.1055 15.5625C12.2878 14.9635 12.3984 14.4036 12.4375 13.8828C12.4766 13.362 12.4766 12.9258 12.4375 12.5742C12.3854 12.2227 12.3594 12.0469 12.3594 12.0469ZM11.1094 4.54688C11.2656 4.39062 11.4447 4.27018 11.6465 4.18555C11.8483 4.10091 12.0664 4.05859 12.3008 4.05859C12.5221 4.05859 12.7337 4.10091 12.9355 4.18555C13.1374 4.27018 13.3164 4.39062 13.4727 4.54688C13.6289 4.6901 13.7493 4.86263 13.834 5.06445C13.9186 5.26628 13.9609 5.48437 13.9609 5.71875C13.9609 6.17448 13.7982 6.5651 13.4727 6.89062C13.1471 7.21615 12.7565 7.37891 12.3008 7.37891C11.832 7.37891 11.4349 7.21615 11.1094 6.89062C10.7839 6.5651 10.6211 6.17448 10.6211 5.71875C10.6211 5.48437 10.6667 5.26628 10.7578 5.06445C10.849 4.86263 10.9661 4.6901 11.1094 4.54688ZM1.71484 16.3438C2.52214 16.3177 3.2806 16.1582 3.99023 15.8652C4.69987 15.5723 5.33463 15.1719 5.89453 14.6641L5.875 14.6836L3.375 12.1836C2.95833 12.3919 2.63932 12.724 2.41797 13.1797C2.19661 13.6354 2.03385 14.0977 1.92969 14.5664C1.82552 15.0352 1.76042 15.4518 1.73438 15.8164C1.72135 16.168 1.71484 16.3438 1.71484 16.3438Z" fill="#6385C0"/>
<path d="M12.3594 12.0469C12.3594 12.0469 12.4896 11.9167 12.75 11.6562C13.0104 11.4089 13.3131 11.1094 13.6582 10.7578C14.0033 10.4062 14.3581 10.0547 14.7227 9.70312C15.0742 9.33854 15.3542 9.05208 15.5625 8.84375C16.2005 8.21875 16.6237 7.47006 16.832 6.59766C17.0534 5.72526 17.1641 4.88868 17.1641 4.08789C17.1641 3.28711 17.112 2.60677 17.0078 2.04688C16.8906 1.47396 16.832 1.1875 16.832 1.1875C16.832 1.1875 16.5521 1.13542 15.9922 1.03125C15.4323 0.927083 14.7552 0.875 13.9609 0.875C13.1667 0.875 12.3333 0.985676 11.4609 1.20703C10.5885 1.41537 9.83985 1.83854 9.21484 2.47656C8.23828 3.42709 7.45703 4.20182 6.87109 4.80078C6.28515 5.39974 5.99219 5.69922 5.99219 5.69922C5.99219 5.69922 5.81641 5.67318 5.46484 5.62109C5.11328 5.56901 4.67709 5.5625 4.15625 5.60156C3.63541 5.64062 3.08203 5.7513 2.49609 5.93359C1.89713 6.12891 1.35677 6.46745 0.875 6.94922L11.0898 17.1836C11.5716 16.6888 11.9102 16.1484 12.1055 15.5625C12.2878 14.9635 12.3984 14.4036 12.4375 13.8828C12.4766 13.362 12.4766 12.9258 12.4375 12.5742C12.3854 12.2227 12.3594 12.0469 12.3594 12.0469ZM11.1094 4.54688C11.2656 4.39062 11.4447 4.27018 11.6465 4.18555C11.8483 4.10091 12.0664 4.05859 12.3008 4.05859C12.5221 4.05859 12.7337 4.10091 12.9355 4.18555C13.1374 4.27018 13.3164 4.39062 13.4727 4.54688C13.6289 4.6901 13.7493 4.86263 13.834 5.06445C13.9186 5.26628 13.9609 5.48437 13.9609 5.71875C13.9609 6.17448 13.7982 6.5651 13.4727 6.89062C13.1471 7.21615 12.7565 7.37891 12.3008 7.37891C11.832 7.37891 11.4349 7.21615 11.1094 6.89062C10.7839 6.5651 10.6211 6.17448 10.6211 5.71875C10.6211 5.48437 10.6667 5.26628 10.7578 5.06445C10.849 4.86263 10.9661 4.6901 11.1094 4.54688ZM1.71484 16.3438C2.52214 16.3177 3.2806 16.1582 3.99023 15.8652C4.69987 15.5723 5.33463 15.1719 5.89453 14.6641L5.875 14.6836L3.375 12.1836C2.95833 12.3919 2.63932 12.724 2.41797 13.1797C2.19661 13.6354 2.03385 14.0977 1.92969 14.5664C1.82552 15.0352 1.76042 15.4518 1.73438 15.8164C1.72135 16.168 1.71484 16.3438 1.71484 16.3438Z" fill="url(#paint0_linear_1_23)"/>
<defs>
<linearGradient id="paint0_linear_1_23" x1="0.875" y1="9.0293" x2="17.1641" y2="9.0293" gradientUnits="userSpaceOnUse">
<stop stop-color="#334E9C"/>
<stop offset="1" stop-color="#5588C7"/>
</linearGradient>
</defs>
</svg>
